<svg class="arancina" width="1400" height="980" viewBox="290 0 800 900" fill="none" xmlns="http://www.w3.org/2000/svg">
    <g class="arancina-body" filter="url(#filter0_d_301:2)">
        <path class="round" d="M980 422C980 443.77 977.532 464.942 972.812 485.277C966.739 511.643 956.918 536.594 943.957 559.532C895.913 644.589 804.649 702 700 702C692.482 702 685.035 701.711 677.651 701.132C585.065 693.81 505.15 641.46 459.813 565.976C448.845 547.748 439.911 528.157 433.292 507.522C424.658 480.567 420 451.826 420 422C420 377.53 430.379 335.476 448.824 298.132C494.534 205.628 589.836 142 700 142C719.612 142 738.739 144.024 757.204 147.856C846.537 166.394 920.276 227.491 956.257 309.007C963.207 324.725 968.753 341.208 972.719 358.289C976.148 372.975 978.399 388.126 979.411 403.617C979.804 409.69 980 415.824 980 422Z"
              fill="url(#paint0_linear_301:2)"/>
        <path class="border" d="M969.401 498.569C966.853 507.565 963.865 516.377 960.461 524.98C960.472 524.985 960.483 524.99 960.495 524.994C962.79 525.946 963.88 528.579 962.929 530.874C962.396 532.158 961.855 533.437 961.305 534.711C960.32 536.992 957.671 538.043 955.39 537.058C955.379 537.053 955.367 537.048 955.356 537.043C953.778 540.542 952.129 544.002 950.412 547.422C950.423 547.428 950.434 547.433 950.444 547.439C952.647 548.59 953.5 551.308 952.35 553.511C950.902 556.283 949.41 559.028 947.875 561.745C946.451 564.267 944.989 566.764 943.491 569.236C942.204 571.362 939.436 572.041 937.311 570.753C937.301 570.747 937.29 570.741 937.28 570.734C932.81 577.851 928.029 584.752 922.956 591.419C922.965 591.426 922.975 591.434 922.984 591.441C924.938 592.978 925.276 595.807 923.739 597.76C922.944 598.771 922.143 599.776 921.334 600.775C919.771 602.708 916.938 603.007 915.006 601.445C914.996 601.437 914.987 601.429 914.978 601.422C912.844 603.976 910.665 606.492 908.443 608.967C908.452 608.975 908.461 608.983 908.469 608.992C910.292 610.681 910.4 613.528 908.711 615.351C904.777 619.595 900.716 623.718 896.533 627.715C894.736 629.432 891.888 629.368 890.171 627.571C890.163 627.562 890.154 627.553 890.146 627.545C883.993 633.24 877.583 638.662 870.936 643.792C870.943 643.801 870.95 643.811 870.958 643.82C872.444 645.812 872.035 648.632 870.044 650.118C869.014 650.887 867.978 651.649 866.937 652.405C864.926 653.864 862.112 653.417 860.652 651.406C860.645 651.396 860.638 651.386 860.631 651.376C857.909 653.286 855.152 655.148 852.36 656.962C852.366 656.973 852.372 656.983 852.379 656.993C853.699 659.099 853.063 661.876 850.957 663.196C846.062 666.266 841.067 669.19 835.978 671.964C833.796 673.154 831.063 672.349 829.874 670.167C829.868 670.156 829.862 670.145 829.856 670.135C822.45 674.018 814.848 677.58 807.069 680.801C807.074 680.813 807.078 680.824 807.083 680.835C807.997 683.146 806.864 685.761 804.552 686.674C803.358 687.147 802.159 687.611 800.957 688.067C798.633 688.949 796.035 687.781 795.153 685.457C795.148 685.446 795.144 685.435 795.14 685.423C792.016 686.551 788.867 687.626 785.693 688.645C785.697 688.656 785.7 688.668 785.704 688.68C786.425 691.058 785.082 693.571 782.704 694.292C777.186 695.965 771.598 697.476 765.945 698.818C763.527 699.391 761.101 697.896 760.527 695.478C760.525 695.466 760.522 695.455 760.519 695.443C752.383 697.235 744.115 698.674 735.731 699.742C735.733 699.754 735.734 699.766 735.735 699.777C736.01 702.248 734.23 704.472 731.76 704.747C730.483 704.889 729.204 705.022 727.922 705.147C725.449 705.388 723.248 703.578 723.007 701.104C723.006 701.092 723.005 701.081 723.004 701.069C719.699 701.337 716.378 701.549 713.042 701.702C713.042 701.714 713.043 701.725 713.043 701.737C713.117 704.221 711.164 706.296 708.68 706.37C705.797 706.456 702.903 706.5 700 706.5C699.125 706.5 698.252 706.496 697.379 706.488C694.894 706.466 692.897 704.434 692.919 701.949C692.919 701.937 692.919 701.926 692.919 701.914C692.477 701.903 692.036 701.891 691.595 701.879C691.594 701.89 691.594 701.902 691.593 701.914C691.482 704.397 689.379 706.32 686.897 706.209C686.656 706.198 686.414 706.187 686.173 706.175C686.026 706.168 685.88 706.161 685.733 706.154C684.628 706.1 683.635 705.652 682.885 704.953C682.057 705.559 681.019 705.888 679.915 705.811C679.043 705.751 678.171 705.687 677.3 705.619L677.296 705.618C673.825 705.344 670.372 705.007 666.937 704.609C664.468 704.323 662.699 702.09 662.985 699.621C662.986 699.609 662.987 699.597 662.989 699.585C652.328 698.176 641.857 696.168 631.609 693.594C631.606 693.606 631.603 693.618 631.6 693.63C630.956 696.03 628.487 697.454 626.087 696.809C624.595 696.409 623.108 695.997 621.626 695.573C619.237 694.889 617.854 692.398 618.537 690.009C618.541 689.997 618.544 689.985 618.548 689.974C614.147 688.638 609.793 687.196 605.488 685.652C605.484 685.663 605.479 685.675 605.475 685.686C604.598 688.012 602.002 689.186 599.677 688.309C593.163 685.854 586.764 683.166 580.488 680.257C578.233 679.211 577.253 676.536 578.298 674.281C578.303 674.271 578.308 674.26 578.314 674.249C568.686 669.595 559.366 664.407 550.392 658.722C550.385 658.732 550.378 658.742 550.372 658.752C549.008 660.83 546.219 661.409 544.141 660.046C542.852 659.2 541.57 658.344 540.295 657.478C538.24 656.081 537.706 653.282 539.103 651.227C539.109 651.217 539.116 651.207 539.123 651.197C535.369 648.556 531.682 645.826 528.067 643.009C528.06 643.019 528.052 643.028 528.045 643.037C526.486 644.973 523.653 645.279 521.717 643.72C516.311 639.367 511.067 634.82 505.997 630.09C504.179 628.395 504.08 625.548 505.776 623.73C505.784 623.722 505.792 623.713 505.8 623.704C498.127 616.314 490.875 608.49 484.082 600.272C484.073 600.279 484.064 600.287 484.054 600.294C482.114 601.847 479.282 601.532 477.729 599.591C476.767 598.387 475.813 597.176 474.87 595.956C473.349 593.99 473.709 591.164 475.675 589.643C475.684 589.636 475.694 589.629 475.704 589.621C472.958 585.952 470.3 582.214 467.733 578.409C467.723 578.415 467.712 578.422 467.702 578.429C465.62 579.785 462.832 579.197 461.476 577.115C459.583 574.21 457.743 571.269 455.955 568.293C454.66 566.141 453.393 563.97 452.155 561.781C450.931 559.618 451.692 556.873 453.855 555.649C453.866 555.643 453.876 555.637 453.887 555.631C450.596 549.589 447.522 543.411 444.675 537.108C444.664 537.113 444.653 537.118 444.642 537.123C442.361 538.109 439.712 537.059 438.726 534.778C438.283 533.753 437.845 532.725 437.414 531.693C436.454 529.4 437.536 526.764 439.828 525.805C439.839 525.8 439.851 525.796 439.862 525.791C438.936 523.474 438.04 521.142 437.175 518.794C437.164 518.798 437.152 518.802 437.141 518.806C434.796 519.628 432.228 518.393 431.406 516.048C430.576 513.678 429.776 511.294 429.007 508.897L429.006 508.895C427.972 505.667 426.994 502.414 426.074 499.138C425.402 496.745 426.797 494.26 429.189 493.588C429.201 493.585 429.213 493.582 429.224 493.579C426.603 483.632 424.516 473.468 422.995 463.119C422.983 463.121 422.971 463.122 422.959 463.124C420.495 463.446 418.236 461.709 417.914 459.245C417.719 457.75 417.535 456.252 417.363 454.751C417.08 452.282 418.853 450.051 421.322 449.768C421.334 449.767 421.346 449.765 421.358 449.764C420.926 445.379 420.596 440.963 420.37 436.521C420.358 436.522 420.346 436.522 420.334 436.522C417.85 436.61 415.766 434.667 415.679 432.183C415.56 428.803 415.5 425.409 415.5 422C415.5 419.486 415.533 416.979 415.598 414.481C415.662 411.996 417.728 410.034 420.213 410.099C420.225 410.099 420.237 410.1 420.249 410.1C420.538 403.186 421.078 396.336 421.861 389.56C421.849 389.559 421.837 389.557 421.825 389.556C419.361 389.231 417.627 386.97 417.951 384.506C418.097 383.4 418.249 382.296 418.407 381.194C418.761 378.734 421.042 377.027 423.502 377.38C423.514 377.382 423.526 377.384 423.538 377.386C423.931 374.929 424.357 372.482 424.814 370.047C424.802 370.045 424.791 370.042 424.779 370.04C422.344 369.542 420.774 367.164 421.271 364.73C422.28 359.798 423.416 354.913 424.676 350.077C425.303 347.672 427.76 346.231 430.165 346.858C430.177 346.861 430.189 346.864 430.201 346.867C432.048 340.22 434.135 333.672 436.45 327.234C436.438 327.23 436.427 327.226 436.416 327.222C434.091 326.343 432.919 323.746 433.798 321.421C434.192 320.378 434.592 319.338 434.998 318.301C435.904 315.987 438.515 314.845 440.829 315.752C440.84 315.756 440.852 315.761 440.863 315.765C441.807 313.465 442.78 311.181 443.782 308.912C443.771 308.907 443.76 308.902 443.749 308.897C441.493 307.856 440.507 305.182 441.548 302.926C442.6 300.647 443.68 298.385 444.789 296.139L444.79 296.138C446.14 293.406 447.533 290.698 448.967 288.016C450.139 285.825 452.866 284.999 455.058 286.171C455.068 286.176 455.079 286.182 455.089 286.188C459.464 278.317 464.207 270.679 469.295 263.297C469.285 263.29 469.275 263.283 469.265 263.276C467.242 261.833 466.771 259.023 468.214 256.999C469 255.898 469.793 254.802 470.594 253.712C472.065 251.71 474.882 251.279 476.885 252.751C476.894 252.758 476.904 252.765 476.914 252.772C479.127 249.858 481.397 246.99 483.72 244.167C483.711 244.159 483.702 244.151 483.693 244.144C481.799 242.534 481.57 239.694 483.18 237.8C487.125 233.161 491.216 228.65 495.446 224.275C497.174 222.488 500.022 222.44 501.809 224.168C501.818 224.176 501.826 224.184 501.835 224.193C508.18 217.836 514.828 211.784 521.757 206.058C521.749 206.048 521.742 206.039 521.734 206.03C520.182 204.089 520.497 201.257 522.438 199.705C523.494 198.86 524.556 198.022 525.625 197.192C527.587 195.668 530.415 196.023 531.939 197.986C531.947 197.995 531.954 198.005 531.961 198.014C534.883 195.818 537.85 193.678 540.859 191.596C540.852 191.586 540.846 191.576 540.839 191.566C539.457 189.5 540.013 186.705 542.079 185.324C547.133 181.945 552.301 178.723 557.577 175.666C559.727 174.42 562.481 175.153 563.727 177.303C563.733 177.314 563.739 177.324 563.745 177.335C571.565 172.97 579.616 168.969 587.875 165.356C587.87 165.345 587.865 165.333 587.861 165.322C586.901 163.029 587.982 160.393 590.275 159.434C591.522 158.912 592.773 158.399 594.029 157.895C596.335 156.968 598.956 158.087 599.882 160.393C599.887 160.405 599.891 160.416 599.896 160.427C603.304 159.122 606.745 157.881 610.216 156.707C610.212 156.695 610.209 156.683 610.205 156.672C609.447 154.305 610.751 151.772 613.117 151.013C618.894 149.163 624.751 147.491 630.682 146.006C633.093 145.403 635.537 146.868 636.14 149.278C636.143 149.29 636.146 149.302 636.149 149.314C644.834 147.288 653.674 145.666 662.648 144.47C662.646 144.458 662.645 144.446 662.644 144.434C662.355 141.966 664.122 139.73 666.59 139.442C667.932 139.285 669.278 139.137 670.626 138.999C673.098 138.745 675.308 140.543 675.561 143.016C675.563 143.028 675.564 143.04 675.565 143.052C679.195 142.738 682.844 142.493 686.513 142.319C686.512 142.307 686.512 142.295 686.511 142.284C686.433 139.799 688.383 137.722 690.867 137.644C693.9 137.548 696.944 137.5 700 137.5C702.257 137.5 704.507 137.526 706.751 137.579C709.236 137.637 711.203 139.698 711.145 142.183C711.145 142.195 711.144 142.207 711.144 142.218C717.04 142.45 722.888 142.864 728.684 143.455C728.685 143.443 728.686 143.431 728.688 143.419C728.98 140.951 731.217 139.187 733.685 139.479C734.679 139.596 735.672 139.719 736.664 139.847C739.128 140.164 740.869 142.42 740.551 144.885C740.55 144.897 740.548 144.909 740.547 144.921C742.453 145.198 744.354 145.494 746.248 145.809C746.25 145.797 746.252 145.785 746.254 145.773C746.701 143.328 749.046 141.709 751.49 142.156C753.709 142.562 755.918 142.993 758.118 143.45L757.204 147.856L758.119 143.45C761.521 144.156 764.902 144.923 768.259 145.749C770.672 146.343 772.147 148.781 771.552 151.194C771.55 151.206 771.547 151.218 771.544 151.23C781.901 153.958 792.023 157.265 801.873 161.113C801.878 161.102 801.883 161.091 801.887 161.08C802.829 158.78 805.457 157.679 807.757 158.62C809.184 159.205 810.605 159.8 812.02 160.407C814.304 161.386 815.362 164.031 814.383 166.316C814.378 166.327 814.373 166.338 814.368 166.349C818.553 168.224 822.684 170.198 826.757 172.269C826.763 172.259 826.768 172.248 826.774 172.237C827.936 170.04 830.659 169.201 832.856 170.364C838.994 173.61 844.998 177.075 850.86 180.747C852.966 182.067 853.603 184.844 852.284 186.95C852.277 186.96 852.271 186.97 852.264 186.98C861.205 192.784 869.794 199.085 877.992 205.843C878 205.834 878.008 205.824 878.015 205.815C879.627 203.923 882.467 203.695 884.359 205.307C885.531 206.305 886.696 207.313 887.852 208.33C889.717 209.972 889.899 212.815 888.257 214.681C888.25 214.69 888.242 214.699 888.234 214.708C891.622 217.787 894.935 220.947 898.168 224.187C898.177 224.178 898.185 224.17 898.194 224.162C899.981 222.434 902.83 222.482 904.557 224.269C909.372 229.249 914.006 234.404 918.45 239.725C920.043 241.632 919.788 244.47 917.88 246.063C917.871 246.071 917.862 246.079 917.853 246.086C924.531 254.347 930.749 262.996 936.467 271.993C936.477 271.987 936.488 271.981 936.498 271.974C938.617 270.675 941.387 271.34 942.687 273.458C943.491 274.771 944.286 276.09 945.07 277.417C946.335 279.556 945.625 282.316 943.486 283.581C943.476 283.587 943.465 283.593 943.455 283.599C945.717 287.571 947.884 291.603 949.955 295.693C949.966 295.688 949.976 295.682 949.987 295.677C952.223 294.591 954.915 295.522 956.002 297.757C957.514 300.869 958.972 304.013 960.373 307.187C961.194 309.045 961.997 310.914 962.78 312.793C963.735 315.087 962.65 317.722 960.356 318.678C960.345 318.682 960.334 318.687 960.322 318.691C962.167 323.331 963.891 328.031 965.491 332.789C965.502 332.785 965.514 332.781 965.525 332.778C967.894 332.024 970.424 333.333 971.178 335.702C971.452 336.563 971.722 337.426 971.987 338.29C972.718 340.666 971.384 343.184 969.009 343.914C968.997 343.918 968.985 343.921 968.974 343.925C969.376 345.314 969.768 346.707 970.149 348.105C970.161 348.102 970.173 348.099 970.185 348.096C972.593 347.481 975.043 348.935 975.658 351.343C976.16 353.311 976.642 355.287 977.102 357.272C977.509 359.014 977.9 360.762 978.273 362.517C978.792 364.947 977.241 367.338 974.81 367.856C974.798 367.859 974.786 367.861 974.774 367.864C975.552 371.83 976.245 375.828 976.852 379.855C976.864 379.853 976.876 379.851 976.888 379.85C979.351 379.519 981.617 381.247 981.948 383.71C982.054 384.499 982.157 385.289 982.256 386.08C982.567 388.546 980.819 390.796 978.354 391.107C978.342 391.108 978.33 391.11 978.318 391.111C978.418 392.025 978.514 392.941 978.606 393.858C978.617 393.857 978.629 393.856 978.641 393.855C981.118 393.647 983.294 395.486 983.502 397.962C983.651 399.745 983.785 401.532 983.902 403.324L983.902 403.327C983.948 404.044 983.992 404.761 984.033 405.48C984.146 407.461 982.959 409.215 981.214 409.914C983.011 410.465 984.34 412.114 984.394 414.097C984.402 414.416 984.411 414.735 984.418 415.055C984.439 415.933 984.207 416.758 983.789 417.46C984.228 418.149 984.486 418.967 984.492 419.845C984.497 420.562 984.5 421.281 984.5 422C984.5 424.501 984.468 426.994 984.404 429.479C984.34 431.964 982.275 433.926 979.79 433.862C979.778 433.862 979.766 433.862 979.755 433.861C979.47 440.726 978.938 447.525 978.167 454.251C978.179 454.253 978.191 454.254 978.203 454.256C980.668 454.579 982.404 456.838 982.081 459.302C981.937 460.402 981.786 461.501 981.629 462.597C981.278 465.057 978.998 466.767 976.538 466.415C976.526 466.413 976.514 466.411 976.502 466.409C976.114 468.839 975.695 471.258 975.244 473.666C975.256 473.668 975.268 473.67 975.28 473.673C977.715 474.17 979.287 476.547 978.79 478.982C978.29 481.431 977.759 483.868 977.196 486.294C976.493 489.343 975.741 492.374 974.941 495.385C974.303 497.787 971.839 499.217 969.437 498.579C969.425 498.575 969.413 498.572 969.401 498.569Z"
              stroke="url(#paint1_linear_301:2)" stroke-width="9" stroke-linecap="round" stroke-linejoin="round"
              stroke-dasharray="18 36 4 20"/>
        <g class="yellow-rise">
            <path d="M484.26 461.86C489 461.86 489.01 454.48 484.26 454.48C479.51 454.48 479.5 461.86 484.26 461.86Z"
                  fill="#F4BB3A"/>
            <path d="M551.47 511.44C557.8 511.44 557.81 501.61 551.47 501.61C545.14 501.61 545.13 511.44 551.47 511.44Z"
                  fill="#7F2E19"/>
            <path d="M733.43 233.18C738.17 233.18 738.18 225.8 733.43 225.8C728.68 225.8 728.67 233.18 733.43 233.18Z"
                  fill="#F4BB3A"/>
            <path d="M689.99 365.96C694.73 365.96 694.74 358.58 689.99 358.58C685.24 358.58 685.23 365.96 689.99 365.96Z"
                  fill="#F4BB3A"/>
            <path d="M699 380.71C703.75 380.71 703.76 373.34 699 373.34C694.26 373.34 694.25 380.71 699 380.71Z"
                  fill="#F4BB3A"/>
            <path d="M704.74 368.42C709.49 368.42 709.5 361.04 704.74 361.04C699.99 361.04 699.99 368.42 704.74 368.42Z"
                  fill="#F4BB3A"/>
            <path d="M471.96 446.28C476.71 446.28 476.72 438.91 471.96 438.91C467.22 438.91 467.21 446.28 471.96 446.28Z"
                  fill="#F4BB3A"/>
            <path d="M486.06 309.27C491.87 308.19 497.38 306.11 502.51 303.16C506.63 300.8 502.92 294.42 498.79 296.79C494.17 299.44 489.33 301.18 484.1 302.16C479.44 303.03 481.41 310.14 486.06 309.27Z"
                  fill="#F4BB3A"/>
            <path d="M795.85 344.77C799.68 342.87 803.51 340.97 807.34 339.07C811.6 336.97 807.87 330.6 803.62 332.71C799.79 334.6 795.95 336.5 792.12 338.4C787.87 340.5 791.6 346.87 795.85 344.77Z"
                  fill="#F4BB3A"/>
            <path d="M854.22 436.11C859.92 433.31 865.63 430.51 871.33 427.71C875.59 425.61 871.86 419.25 867.61 421.34C861.9 424.14 856.2 426.94 850.5 429.74C846.24 431.84 849.97 438.2 854.22 436.11Z"
                  fill="#F4BB3A"/>
            <path d="M917.03 397.92C921.77 397.92 921.78 390.55 917.03 390.55C912.28 390.55 912.27 397.92 917.03 397.92Z"
                  fill="#F4BB3A"/>
            <path d="M927.68 380.71C932.43 380.71 932.44 373.34 927.68 373.34C922.94 373.34 922.93 380.71 927.68 380.71Z"
                  fill="#F4BB3A"/>
            <path d="M744.9 205.31C749.65 205.31 749.66 197.93 744.9 197.93C740.16 197.93 740.15 205.31 744.9 205.31Z"
                  fill="#F4BB3A"/>
            <path d="M599.83 619.23C604.57 619.23 604.58 611.85 599.83 611.85C595.08 611.85 595.07 619.23 599.83 619.23Z"
                  fill="#F4BB3A"/>
            <path d="M467.86 461.86C472.61 461.86 472.62 454.48 467.86 454.48C463.12 454.48 463.11 461.86 467.86 461.86Z"
                  fill="#F4BB3A"/>
            <path d="M598.19 637.26C602.93 637.26 602.94 629.88 598.19 629.88C593.44 629.88 593.43 637.26 598.19 637.26Z"
                  fill="#F4BB3A"/>
            <path d="M612.94 626.6C617.69 626.6 617.7 619.23 612.94 619.23C608.19 619.23 608.19 626.6 612.94 626.6Z"
                  fill="#F4BB3A"/>
            <path d="M748.18 456.94C752.93 456.94 752.94 449.56 748.18 449.56C743.44 449.56 743.43 456.94 748.18 456.94Z"
                  fill="#F4BB3A"/>
            <path d="M767.85 452.84C772.6 452.84 772.61 445.46 767.85 445.46C763.11 445.46 763.1 452.84 767.85 452.84Z"
                  fill="#F4BB3A"/>
            <path d="M745.72 624.15C750.47 624.15 750.48 616.77 745.72 616.77C740.98 616.77 740.97 624.15 745.72 624.15Z"
                  fill="#F4BB3A"/>
            <path d="M741.62 639.72C746.37 639.72 746.38 632.34 741.62 632.34C736.88 632.34 736.87 639.72 741.62 639.72Z"
                  fill="#F4BB3A"/>
        </g>
        <g class="brown-rise">
            <path d="M636.71 259.81C643.04 259.81 643.05 249.98 636.71 249.98C630.38 249.98 630.37 259.81 636.71 259.81Z"
                  fill="#7F2E19"/>
            <path d="M586.71 424.74C593.04 424.74 593.05 414.91 586.71 414.91C580.38 414.91 580.37 424.74 586.71 424.74Z"
                  fill="#7F2E19"/>
            <path d="M788.34 413.09C794.67 413.09 794.68 403.25 788.34 403.25C782.02 403.25 782.01 413.09 788.34 413.09Z"
                  fill="#B55232"/>
            <path d="M820.31 231.74C827.43 231.74 827.44 220.68 820.31 220.68C813.19 220.68 813.18 231.74 820.31 231.74Z"
                  fill="#7F2E19"/>
            <path d="M886.7 289.94C893.82 289.94 893.83 278.87 886.7 278.87C879.58 278.87 879.57 289.94 886.7 289.94Z"
                  fill="#7F2E19"/>
            <path d="M673.59 464.73C679.92 464.73 679.93 454.89 673.59 454.89C667.27 454.89 667.26 464.73 673.59 464.73Z"
                  fill="#7F2E19"/>
            <path d="M649.83 190.94C656.94 190.94 656.96 179.88 649.83 179.88C642.71 179.88 642.69 190.94 649.83 190.94Z"
                  fill="#7F2E19"/>
            <path d="M832.374 544.92C835.544 544.92 835.544 540 832.374 540C829.214 540 829.204 544.92 832.374 544.92Z"
                  fill="#672009"/>
            <path d="M549.378 633.91C552.538 633.91 552.548 629 549.378 629C546.207 629 546.207 633.91 549.378 633.91Z"
                  fill="#672009"/>
            <path d="M887.374 231.92C890.534 231.92 890.544 227 887.374 227C884.214 227 884.204 231.92 887.374 231.92Z"
                  fill="#672009"/>
            <path d="M888.24 595.56C891.4 595.56 891.41 590.64 888.24 590.64C885.07 590.64 885.07 595.56 888.24 595.56Z"
                  fill="#672009"/>
            <path d="M661.3 570.25C665.26 570.25 665.26 564.11 661.3 564.11C657.34 564.11 657.34 570.25 661.3 570.25Z"
                  fill="#672009"/>
            <path d="M591.22 559.19C593.59 559.19 593.6 555.5 591.22 555.5C588.85 555.5 588.84 559.19 591.22 559.19Z"
                  fill="#672009"/>
            <path d="M458.97 505.15C462.92 505.15 462.93 499 458.97 499C455.01 499 455.01 505.15 458.97 505.15Z"
                  fill="#672009"/>
            <path d="M441.751 455.83C448.081 455.83 448.091 446 441.751 446C435.421 446 435.411 455.83 441.751 455.83Z"
                  fill="#672009"/>
            <path d="M455.751 380.84C462.081 380.84 462.091 371 455.751 371C449.421 371 449.411 380.84 455.751 380.84Z"
                  fill="#672009"/>
            <path d="M604.751 443.84C611.081 443.84 611.091 434 604.751 434C598.421 434 598.411 443.84 604.751 443.84Z"
                  fill="#672009"/>
            <path d="M925.751 494.84C932.081 494.84 932.091 485 925.751 485C919.421 485 919.411 494.84 925.751 494.84Z"
                  fill="#672009"/>
            <path d="M894.9 458.99C901.23 458.99 901.24 449.15 894.9 449.15C888.57 449.15 888.56 458.99 894.9 458.99Z"
                  fill="#672009"/>
            <path d="M576.751 349.84C583.081 349.84 583.091 340 576.751 340C570.421 340 570.411 349.84 576.751 349.84Z"
                  fill="#672009"/>
            <path d="M735.751 307.84C742.081 307.84 742.091 298 735.751 298C729.421 298 729.411 307.84 735.751 307.84Z"
                  fill="#672009"/>
            <path d="M631.751 659.84C638.081 659.84 638.091 650 631.751 650C625.421 650 625.411 659.84 631.751 659.84Z"
                  fill="#672009"/>
            <path d="M500.966 325.15C504.926 325.15 504.926 319 500.966 319C497.016 319 497.006 325.15 500.966 325.15Z"
                  fill="#672009"/>
            <path d="M839.57 494.64C845.9 494.64 845.91 484.81 839.57 484.81C833.24 484.81 833.23 494.64 839.57 494.64Z"
                  fill="#672009"/>
            <path d="M515.966 584.15C519.926 584.15 519.936 578 515.966 578C512.016 578 512.006 584.15 515.966 584.15Z"
                  fill="#672009"/>
            <path d="M724 534.6C727.96 534.6 727.96 528.45 724 528.45C720.05 528.45 720.04 534.6 724 534.6Z"
                  fill="#672009"/>
            <path d="M879.936 385.3C887.846 385.3 887.866 373 879.936 373C872.026 373 872.016 385.3 879.936 385.3Z"
                  fill="#672009"/>
            <path d="M699.82 627.01C706.15 627.01 706.16 617.18 699.82 617.18C693.49 617.18 693.48 627.01 699.82 627.01Z"
                  fill="#672009"/>
            <path d="M787.52 645.05C793.85 645.05 793.86 635.21 787.52 635.21C781.2 635.21 781.19 645.05 787.52 645.05Z"
                  fill="#672009"/>
        </g>
    </g>
    <g class="crumb">
        <path d="M383.03 229.3C379.88 230.54 376.99 232.61 375.14 235.45C373.29 238.28 372.56 241.92 373.56 245.16C375.36 250.94 381.68 253.8 387.33 255.97C389.45 256.78 392.01 257.54 393.82 256.18C395.51 254.9 395.63 252.44 396.69 250.6C400.05 244.75 414.57 244.7 407.37 235.41C402.07 228.58 390.81 226.24 383.03 229.3Z"
              fill="#D6562B"/>
        <path d="M360.01 323.28C357.1 323.35 354.76 326.25 354.79 329.15C354.83 332.05 356.87 334.69 359.46 336C362.05 337.31 365.1 337.46 367.97 337.02C369.01 334.91 370.06 332.74 370.39 330.41C370.72 328.07 370.22 325.49 368.52 323.86C366.82 322.22 363.79 321.93 362.16 323.63"
              fill="#ED7C31"/>
        <path d="M427.125 270.288C425.155 270.838 423.495 272.148 421.905 273.438C418.495 276.158 415.095 278.888 411.685 281.618C410.715 282.398 409.714 283.228 409.254 284.378C408.474 286.328 409.585 288.628 411.265 289.878C412.955 291.128 415.075 291.578 417.135 292.008C420.805 292.758 425.045 293.388 427.955 291.028C429.465 289.798 430.335 287.958 431.145 286.188C432.565 283.078 433.985 279.968 435.415 276.858C437.705 271.858 431.485 269.058 427.125 270.288Z"
              fill="#ED7C31"/>
        <path d="M275.05 424.53C270.06 426.91 266.32 431.74 265.25 437.17C264.81 439.37 264.83 441.79 266.02 443.7C268.53 447.74 274.42 447.39 279.11 446.54C282.49 445.93 285.88 445.32 289.26 444.71C292.53 444.12 296.12 443.34 298.07 440.65C308.11 426.86 283.66 420.41 275.05 424.53Z"
              fill="#B55232"/>
        <path d="M950.01 163.5C953.79 163.31 958.42 163.57 960.17 166.93C962.06 170.56 959.07 174.73 956.28 177.72C954.14 180.01 952.01 182.3 949.87 184.59C942.28 192.71 931.72 189.64 930.16 177.97C928.62 166.52 941.25 163.95 950.01 163.5Z"
              fill="#ED7C31"/>
        <path d="M937.33 261.71C947.79 242.04 917.7 235.79 908.55 252.71C905.86 257.68 904.98 268.43 913.45 268.64C918.39 268.77 920.27 262.3 924.24 260.31C925.56 259.65 938.76 259.02 937.33 261.71Z"
              fill="#ED7C31"/>
        <path d="M1066.79 284.52C1066.8 286.9 1065.46 289.17 1063.58 290.63C1061.69 292.09 1059.31 292.82 1056.94 293.05C1053.91 293.36 1050.75 292.88 1048.11 291.36C1041.8 287.73 1040.31 277.01 1048.72 275.29C1054.77 274.05 1066.78 276.76 1066.79 284.52Z"
              fill="#D6562B"/>
        <path d="M1061.13 225.52C1062.15 224.03 1061.77 221.85 1062.92 220.46C1064.27 218.82 1066.79 219.19 1068.89 218.91C1071.81 218.53 1074.56 216.36 1075.12 213.47C1076.58 205.96 1068.67 207.45 1064.52 208.69C1060.27 209.95 1055.35 209.96 1051.32 211.82C1039.69 217.18 1056.1 232.79 1061.13 225.52Z"
              fill="#ED7C31"/>
        <path d="M1062.96 497.88C1068.05 499.12 1073.7 497.77 1077.69 494.36C1081.67 490.96 1083.89 485.58 1083.46 480.36C1082.18 464.61 1052.74 449.47 1041.38 463.23C1029.43 477.73 1049.73 494.68 1062.96 497.88Z"
              fill="#B55232"/>
        <path d="M989.41 575.51C1014.39 581.55 998.52 550.92 982.34 549.75C975.45 549.26 971.47 553.54 971.77 560.52C972.2 570.26 981.27 573.54 989.41 575.51Z"
              fill="#ED7C31"/>
        <path d="M353.6 636.82C350.3 638.93 348.68 642.81 347.24 646.45C345.89 649.85 344.54 653.29 344.1 656.91C343.66 660.54 344.23 664.42 346.42 667.34C349.56 671.52 355.45 672.86 360.6 671.96C365.76 671.07 370.38 668.34 374.88 665.66C379.86 662.69 385.11 659.44 387.67 654.23C391.25 646.93 390.82 638.41 382.29 636.48C375.08 634.84 359.94 632.75 353.6 636.82Z"
              fill="#ED7C31"/>
        <path d="M469.19 665.64C467.47 668.53 466.67 672.06 467.43 675.34C468.19 678.62 470.66 681.56 473.9 682.47C475.98 683.05 478.24 682.78 480.24 681.97C482.85 680.9 484.99 678.96 487.07 677.06C492.04 672.52 514.52 656.01 498.69 650.18C489.02 646.62 473.67 658.12 469.19 665.64Z"
              fill="#D6562B"/>
        <path d="M930.662 655.46C934.072 658.52 939.082 660.25 943.342 658.57C945.002 657.92 946.432 656.81 947.842 655.72C951.132 653.16 954.422 650.6 957.712 648.04C958.902 647.12 960.182 646.03 960.342 644.54C960.602 642.19 958.072 640.61 955.912 639.64C947.312 635.8 938.722 631.95 930.122 628.1C927.102 626.75 921.882 639.42 922.002 641.5C922.282 646.24 927.282 652.45 930.662 655.46Z"
              fill="#ED7C31"/>
    </g>
    <defs>
        <filter id="filter0_d_301:2" x="407" y="133" width="586" height="586" filterUnits="userSpaceOnUse"
                color-interpolation-filters="sRGB">
            <feBlend mode="normal" in="SourceGraphic" in2="effect1_dropShadow_301:2" result="shape"/>
        </filter>
        <linearGradient id="paint0_linear_301:2" x1="456.405" y1="231.633" x2="958.323" y2="564.179"
                        gradientUnits="userSpaceOnUse">
            <stop stop-color="#B55232"/>
            <stop offset="0.598958" stop-color="#ED7C31"/>
        </linearGradient>
        <linearGradient id="paint1_linear_301:2" x1="442.5" y1="227" x2="959" y2="607" gradientUnits="userSpaceOnUse">
            <stop stop-color="#B55232"/>
            <stop offset="0.651042" stop-color="#ED7C31"/>
        </linearGradient>
    </defs>
</svg>
