<svg width="1969" height="1913" viewBox="0 0 1969 1913" fill="none" xmlns="http://www.w3.org/2000/svg">
<path d="M1626.75 965.683C1424.5 1116 963.013 1135.96 794.882 1076.59C780.556 1071.53 722.16 1037.99 694.752 1021.86C641.098 994.267 615.323 897.578 611.429 851.085C605.87 784.713 655.664 627.152 963.013 541.045C1138.1 491.993 1358.02 457.546 1576.64 575.364C1611.32 604.593 1880.3 594.799 1789.87 756.806C1774.63 784.112 1662.11 939.402 1626.75 965.683Z" fill="#2C2C2C"/>
<path d="M1710.32 842.328C1650.5 894.356 1567.67 933.389 1474.34 961.981C1381.1 990.549 1277.87 1008.54 1177.69 1018.79C1077.52 1029.03 980.563 1031.52 899.928 1029.14C819.11 1026.75 755.233 1019.49 720.98 1010.47C650.789 991.993 596.186 972.62 555.402 943.586C515.003 914.827 487.768 876.29 472.967 818.415C465.82 790.468 470.471 739.674 521.94 682.502C573.504 625.223 672.045 561.672 852.027 509.594C1057.44 450.159 1317.94 401.356 1597.32 494.48C1609.55 498.557 1637.92 509.8 1669.76 527.65C1701.64 545.524 1736.51 569.745 1762.2 599.618C1787.83 629.426 1803.87 664.274 1799.62 703.892C1795.36 743.647 1770.49 790.008 1710.32 842.328Z" fill="#434343" stroke="#757575" stroke-width="16"/>
<path d="M528.822 851.378C546.512 907.279 626.34 956.907 664.043 974.733C648.058 942.85 664.301 906.556 674.421 892.394C619.899 877.035 547.002 801.311 527.507 771.601C510.713 788.486 528.146 835.976 528.822 851.378Z" fill="url(#paint0_linear_306:171)" fill-opacity="0.27"/>
<path fill-rule="evenodd" clip-rule="evenodd" d="M732.076 1004.93C717.615 986.872 708.123 967.139 704.359 954.202C693.66 917.424 720.375 827.019 966.746 763.845C1107.09 727.857 1285.88 697.818 1477.58 752.845C1480.56 754.233 1484.68 755.977 1489.64 758.076C1533.18 776.514 1641.55 822.406 1615.65 896.686C1357.56 1042.15 930.005 1035.51 752.396 1008.42C745.566 1007.38 738.788 1006.22 732.076 1004.93Z" fill="#666666"/>
<path d="M77.3396 1484.72C243.196 1164.7 606.854 1042.74 719.699 1018.95C719.699 1018.95 647.886 997.276 631.478 990.979C615.071 984.683 576.783 965.702 576.783 965.702C161.106 1126.51 96.62 1300.72 7.63722 1450.02C7.63722 1450.02 2.59391 1460.55 17.8994 1476.29C33.205 1492.03 77.3396 1484.72 77.3396 1484.72Z" fill="#454444"/>
<path d="M902.657 802.534C900.387 803.024 898.304 803.844 896.969 804.972C895.635 806.096 895.106 807.545 895.824 808.836C897.116 811.14 901.665 812.287 905.733 813.159C907.259 813.485 909.102 813.791 910.407 813.252C911.625 812.745 911.713 811.765 912.478 811.034C914.903 808.709 925.36 808.71 920.182 805.001C916.37 802.274 908.262 801.327 902.657 802.534Z" fill="#D6562B"/>
<path d="M886.005 839.922C883.909 839.946 882.222 841.098 882.241 842.252C882.268 843.407 883.735 844.461 885.599 844.986C887.464 845.511 889.66 845.575 891.728 845.404C892.478 844.565 893.236 843.703 893.476 842.776C893.715 841.844 893.357 840.816 892.134 840.165C890.911 839.51 888.729 839.39 887.553 840.065" fill="#ED7C31"/>
<path d="M934.383 818.916C932.963 819.132 931.767 819.651 930.621 820.163C928.163 821.241 925.712 822.323 923.254 823.405C922.555 823.715 921.834 824.044 921.502 824.501C920.938 825.276 921.736 826.194 922.945 826.694C924.161 827.194 925.688 827.376 927.171 827.55C929.814 827.854 932.867 828.11 934.964 827.175C936.053 826.687 936.681 825.956 937.266 825.252C938.291 824.016 939.316 822.779 940.348 821.543C942.001 819.555 937.524 818.432 934.383 818.916Z" fill="#ED7C31"/>
<path d="M824.739 880.119C821.143 881.06 818.446 882.978 817.671 885.139C817.352 886.014 817.365 886.977 818.22 887.74C820.025 889.352 824.267 889.221 827.646 888.889C830.081 888.65 832.523 888.412 834.957 888.174C837.313 887.944 839.899 887.638 841.306 886.57C848.547 881.093 830.943 878.491 824.739 880.119Z" fill="#B55232"/>
<path d="M1311.05 777.12C1313.77 777.05 1317.11 777.16 1318.37 778.5C1319.73 779.948 1317.57 781.604 1315.56 782.791C1314.01 783.7 1312.48 784.609 1310.94 785.517C1305.46 788.74 1297.86 787.503 1296.74 782.854C1295.64 778.293 1304.74 777.287 1311.05 777.12Z" fill="#ED7C31"/>
<path d="M1301.84 816.207C1309.39 808.389 1287.73 805.859 1281.12 812.583C1279.18 814.559 1278.54 818.838 1284.64 818.933C1288.2 818.992 1289.56 816.418 1292.42 815.631C1293.37 815.37 1302.88 815.138 1301.84 816.207Z" fill="#ED7C31"/>
<path d="M1395.07 825.468C1395.07 826.416 1394.1 827.318 1392.75 827.897C1391.39 828.476 1389.67 828.763 1387.97 828.851C1385.78 828.97 1383.51 828.775 1381.61 828.166C1377.07 826.712 1376 822.442 1382.06 821.768C1386.42 821.283 1395.06 822.379 1395.07 825.468Z" fill="#D6562B"/>
<path d="M1391.03 801.969C1391.77 801.377 1391.5 800.508 1392.33 799.956C1393.3 799.305 1395.12 799.456 1396.63 799.347C1398.73 799.2 1400.71 798.34 1401.12 797.19C1402.18 794.202 1396.48 794.784 1393.49 795.272C1390.43 795.768 1386.88 795.765 1383.98 796.5C1375.6 798.618 1387.41 804.856 1391.03 801.969Z" fill="#ED7C31"/>
<path d="M1392.14 910.417C1395.81 910.917 1399.88 910.388 1402.76 909.035C1405.62 907.687 1407.23 905.548 1406.92 903.469C1406.01 897.196 1384.82 891.127 1376.63 896.59C1368.01 902.347 1382.62 909.124 1392.14 910.417Z" fill="#B55232"/>
<path d="M1339.11 941.225C1357.1 943.664 1345.69 931.446 1334.04 930.958C1329.08 930.753 1326.21 932.452 1326.42 935.232C1326.72 939.11 1333.25 940.429 1339.11 941.225Z" fill="#ED7C31"/>
<path d="M881.149 964.755C878.77 965.591 877.601 967.134 876.561 968.581C875.586 969.933 874.611 971.301 874.291 972.742C873.972 974.186 874.379 975.732 875.954 976.898C878.212 978.566 882.453 979.108 886.163 978.757C889.88 978.41 893.21 977.329 896.453 976.268C900.042 975.092 903.825 973.806 905.673 971.735C908.257 968.833 907.954 965.44 901.812 964.66C896.62 963.997 885.718 963.144 881.149 964.755Z" fill="#ED7C31"/>
<path d="M964.376 976.391C963.135 977.539 962.556 978.944 963.101 980.251C963.645 981.558 965.422 982.732 967.755 983.099C969.253 983.332 970.88 983.228 972.321 982.908C974.202 982.486 975.745 981.716 977.244 980.963C980.827 979.162 997.03 972.619 985.634 970.276C978.672 968.845 967.608 973.403 964.376 976.391Z" fill="#D6562B"/>
<path d="M1296.74 972.977C1299.19 974.2 1302.8 974.896 1305.87 974.233C1307.07 973.976 1308.1 973.536 1309.11 973.104C1311.49 972.09 1313.86 971.075 1316.23 970.06C1317.09 969.695 1318.01 969.263 1318.13 968.67C1318.31 967.735 1316.49 967.102 1314.94 966.713C1308.75 965.172 1302.56 963.627 1296.37 962.082C1294.2 961.541 1290.43 966.578 1290.51 967.407C1290.71 969.294 1294.31 971.774 1296.74 972.977Z" fill="#ED7C31"/>
<path d="M1557.72 372.708C1463.74 464.974 1509.88 595.681 1570.31 704.339C1613.62 782.217 1641.34 842.889 1612.58 892.863C1604.88 910.434 1462.73 978.956 1292.57 1000.63C968.754 1041.87 846.271 1021.05 793.835 1014.41C813.252 989.442 876.335 961.63 1015.97 934.33C1347.43 869.527 1438.22 645.419 1442.19 541.465C1441.14 505.589 1450.18 418.062 1494.73 354.961C1539.28 291.86 1603.98 327.295 1557.72 372.708Z" fill="url(#paint1_linear_306:171)"/>
<defs>
<linearGradient id="paint0_linear_306:171" x1="557.509" y1="786.806" x2="674.211" y2="938.638" gradientUnits="userSpaceOnUse">
<stop stop-color="#EDC431"/>
<stop offset="1" stop-color="#ED7C31" stop-opacity="0"/>
</linearGradient>
<linearGradient id="paint1_linear_306:171" x1="1378.08" y1="280.331" x2="1129.16" y2="1163.94" gradientUnits="userSpaceOnUse">
<stop stop-color="#F4BB3A"/>
<stop offset="1" stop-color="#C4C4C4" stop-opacity="0"/>
</linearGradient>
</defs>
</svg>
