<svg width="625" height="722" viewBox="0 0 625 722" fill="none" xmlns="http://www.w3.org/2000/svg">
<path d="M96.0481 160.092C113.476 121.919 137.301 123.632 154.654 107.786C177.11 87.2117 232.671 6.89893 401.186 1.25563C642.446 -6.82384 314.32 54.3732 451.631 120.024C513.793 162.983 617.379 261.201 609.557 376.387C567.234 399.056 672.371 433.145 596.462 464.595C624.51 548.89 549.998 560.105 530.902 587.738C453.557 621.504 506.748 630.624 465.903 653.519C385.1 748.872 305.091 728.541 240.289 683.759C222.282 671.315 142.035 635.424 86.5538 597.082C39.9754 564.893 15.3189 521.178 4.61241 473.311C-6.32474 424.412 42.7114 418.18 6.97555 321.482C-11.0641 272.669 16.1195 283.72 23.4151 265.377C67.5509 233.827 37.303 234.131 46.2922 219.136C72.944 193.708 92.0939 165.814 96.0481 160.092Z" fill="url(#paint0_linear_306:195)"/>
<defs>
<linearGradient id="paint0_linear_306:195" x1="311.818" y1="532.803" x2="599.67" y2="-309.395" gradientUnits="userSpaceOnUse">
<stop stop-color="#F49F3B" stop-opacity="0.59"/>
<stop offset="0.911458" stop-color="#EDB831" stop-opacity="0"/>
</linearGradient>
</defs>
</svg>
